<?xml version="1.0" standalone="no"?>
<!DOCTYPE svg PUBLIC "-//W3C//DTD SVG 20010904//EN"
 "http://www.w3.org/TR/2001/REC-SVG-20010904/DTD/svg10.dtd">
<svg version="1.0" xmlns="http://www.w3.org/2000/svg"
 width="1032.000000pt" height="296.000000pt" viewBox="0 0 1032.000000 296.000000"
 preserveAspectRatio="xMidYMid meet">

<g transform="translate(0.000000,296.000000) scale(0.100000,-0.100000)"
fill="#000000" stroke="none">
<path d="M8120 955 l0 -515 134 0 c74 0 136 4 138 9 2 6 30 1 63 -11 159 -54
342 35 405 198 32 81 33 214 1 295 -28 72 -89 142 -155 177 -45 24 -62 27
-151 27 -55 0 -115 -4 -132 -9 l-33 -8 0 176 0 176 -135 0 -135 0 0 -515z
m437 -75 c36 -22 60 -82 49 -125 -4 -15 -20 -40 -36 -56 -24 -24 -37 -29 -78
-29 -45 0 -53 4 -82 37 -29 33 -32 41 -27 87 8 92 95 135 174 86z"/>
<path d="M910 940 l0 -500 140 0 140 0 0 195 0 195 159 0 158 0 7 -52 c3 -29
6 -117 6 -195 l0 -143 140 0 140 0 0 500 0 500 -140 0 -140 0 0 -185 0 -185
-165 0 -165 0 0 185 0 185 -140 0 -140 0 0 -500z"/>
<path d="M6290 940 l0 -500 140 0 140 0 0 195 0 195 165 0 165 0 0 -195 0
-195 140 0 140 0 0 500 0 500 -140 0 -140 0 0 -185 0 -185 -165 0 -165 0 0
185 0 185 -140 0 -140 0 0 -500z"/>
<path d="M5777 1403 c-4 -3 -7 -66 -7 -140 l0 -133 -70 0 -70 0 0 -115 0 -115
70 0 70 0 0 -230 0 -230 140 0 140 0 0 230 0 230 75 0 75 0 0 115 0 115 -75 0
-75 0 0 140 0 140 -133 0 c-74 0 -137 -3 -140 -7z"/>
<path d="M4462 1140 c-124 -26 -232 -112 -272 -216 -34 -87 -34 -208 2 -285
70 -152 221 -230 419 -216 89 6 184 44 229 92 l24 26 -67 67 c-50 50 -70 64
-81 57 -66 -48 -70 -50 -144 -50 -73 0 -74 0 -110 40 l-37 40 242 3 241 2 6
58 c24 207 -121 373 -334 386 -41 3 -94 1 -118 -4z m155 -199 c28 -18 52 -56
40 -67 -2 -3 -55 -3 -117 -2 l-113 3 28 33 c46 55 105 67 162 33z"/>
<path d="M5180 1141 c-131 -43 -199 -132 -187 -248 11 -101 66 -153 203 -191
85 -24 117 -39 111 -55 -12 -36 -130 -23 -194 22 l-41 29 -66 -73 c-36 -40
-66 -77 -66 -82 0 -15 94 -73 153 -93 191 -67 397 -27 456 89 48 92 35 188
-35 257 -36 36 -58 48 -143 74 -79 25 -101 35 -101 50 0 10 10 20 24 24 32 8
113 -18 142 -45 l24 -23 68 74 c37 40 68 76 70 81 6 14 -43 52 -108 82 -58 28
-75 31 -175 34 -60 1 -121 -1 -135 -6z"/>
<path d="M2095 1112 c-104 -50 -164 -135 -184 -262 -28 -174 48 -332 189 -399
75 -35 194 -36 258 -3 34 18 42 20 42 7 0 -13 21 -15 135 -15 l135 0 0 345 0
345 -130 0 c-102 0 -132 -3 -136 -14 -4 -11 -14 -10 -55 5 -78 30 -179 26
-254 -9z m281 -246 c27 -27 34 -42 34 -75 0 -80 -40 -121 -120 -121 -80 0
-131 88 -95 164 21 44 56 65 109 66 30 0 45 -7 72 -34z"/>
<path d="M3131 1121 c-52 -25 -51 -25 -51 -6 0 13 -22 15 -135 15 l-135 0 0
-345 0 -345 134 0 135 0 3 209 c3 187 5 211 22 229 26 30 70 37 108 18 17 -9
32 -15 33 -14 1 2 30 45 65 96 35 50 66 92 70 92 3 0 60 -141 127 -313 l121
-312 132 0 133 0 133 340 c74 187 134 341 134 343 0 1 -65 2 -144 2 l-145 0
-15 -52 c-8 -29 -31 -117 -52 -196 -21 -78 -41 -137 -45 -131 -3 6 -29 94 -55
195 l-49 184 -121 0 c-66 0 -174 2 -240 6 -106 4 -124 3 -163 -15z"/>
<path d="M7312 888 c3 -236 4 -244 28 -292 32 -64 108 -130 173 -153 78 -27
236 -25 300 5 77 34 123 77 156 144 l31 61 0 239 0 238 -134 0 -135 0 -3 -221
c-3 -205 -4 -222 -22 -235 -28 -20 -80 -18 -99 4 -15 16 -17 48 -17 235 l0
217 -141 0 -140 0 3 -242z"/>
</g>
</svg>
